:version 1.10
:name ASF
:units
  mass 1
  length 1
  angle deg
:documentation
  ASF file generated by Kaydara
:root
  axis xyz
  order  tx ty tz rx ry rz
  position 0 0 0
  orientation 0 0 0
:bonedata
  begin
    id 1
    name LeftUpLegDummy
    direction 1 -2.30186e-007 -8.31532e-007
    length 2.93387
    axis 0 0 0 xyz
  end
  begin
    id 2
    name LeftUpLeg
    direction -1.82929e-007 -1 -1.48925e-009
    length 17.3336
    axis -3.48766 0.00143442 -0.000521554 xyz
    dof rx ry rz
  end
  begin
    id 3
    name LeftLeg
    direction -1.82929e-007 -1 -5.23717e-011
    length 14.9995
    axis 3.68178 -0.00654042 -0.000282425 xyz
    dof rx ry rz
  end
  begin
    id 4
    name LeftFoot
    direction 8.31532e-007 -4.54534e-011 1
    length 6.74421
    axis 1.87234e-006 4.66016e-005 -5.96866e-006 xyz
    dof rx ry rz
  end
  begin
    id 5
    name LeftToes
    direction 0.00818058 -0.00485161 0.999955
    length 3.85048
    axis 1.06247e-005 4.65869e-005 -5.96999e-006 xyz
    dof rx ry rz
  end
  begin
    id 6
    name SpineDummy
    direction -5.8607e-008 0.943407 -0.331637
    length 5.93572
    axis 0 0 0 xyz
  end
  begin
    id 7
    name Spine
    direction -1.04988e-007 0.999988 0.00495137
    length 10.1015
    axis -0.001389 0.000121417 6.61666e-006 xyz
    dof rx ry rz
  end
  begin
    id 8
    name Spine1
    direction 0 0 0
    length 0
    axis -0.001389 0.00012144 6.56766e-006 xyz
    dof rx ry rz
  end
  begin
    id 9
    name RightShoulderDummy
    direction -0.98348 0.17941 -0.0240696
    length 3.59882
    axis -0.001389 0.00012144 6.56766e-006 xyz
  end
  begin
    id 10
    name RightShoulder
    direction -0.978693 0.204882 0.0135597
    length 2.70001
    axis 0.215806 0.000203631 -0.00679732 xyz
    dof rx ry rz
  end
  begin
    id 11
    name RightArm
    direction -1 3.85509e-006 8.31394e-007
    length 10.2459
    axis -23.2009 -0.134239 -0.964098 xyz
    dof rx ry rz
  end
  begin
    id 12
    name RightForeArm
    direction -1 3.85569e-006 8.3129e-007
    length 8.16799
    axis -9.92322 0.0658061 0.17887 xyz
    dof rx ry rz
  end
  begin
    id 13
    name RightHand
    direction -0.992843 -0.0414604 0.112003
    length 5.28593
    axis -0.00960638 0.00330669 -0.185225 xyz
    dof rx ry rz
  end
  begin
    id 14
    name LeftShoulder1Dummy
    direction 0.983523 0.179172 -0.0240748
    length 3.59866
    axis -0.001389 0.00012144 6.56766e-006 xyz
  end
  begin
    id 15
    name LeftShoulder1
    direction 0.978627 0.205195 0.0135605
    length 2.70019
    axis -0.001389 0.00012144 6.57583e-006 xyz
    dof rx ry rz
  end
  begin
    id 16
    name LeftArm
    direction 1 3.51895e-006 -8.60188e-007
    length 10.2459
    axis -23.1894 0.134785 0.967513 xyz
    dof rx ry rz
  end
  begin
    id 17
    name LeftForeArm
    direction 1 3.51921e-006 -7.32029e-007
    length 8.16799
    axis -9.91835 -0.0656957 -0.177789 xyz
    dof rx ry rz
  end
  begin
    id 18
    name LeftHand
    direction 0.992938 -0.0411636 0.11126
    length 5.32135
    axis -0.00960237 -0.00340661 0.185177 xyz
    dof rx ry rz
  end
  begin
    id 19
    name HEadDummy
    direction 1.01974e-006 0.999861 -0.016675
    length 2.99946
    axis -0.001389 0.00012144 6.56766e-006 xyz
  end
  begin
    id 20
    name HEad
    direction -0.0222689 0.980941 0.193023
    length 5.12695
    axis -0.001389 0.00012144 6.56766e-006 xyz
    dof rx ry rz
  end
  begin
    id 21
    name RightUpLegDummy
    direction -1 2.30186e-007 8.31532e-007
    length 2.93387
    axis 0 0 0 xyz
  end
  begin
    id 22
    name RightUpLeg
    direction -1.82966e-007 -1 1.56832e-007
    length 17.3336
    axis -3.4909 -0.000906625 0.00028951 xyz
    dof rx ry rz
  end
  begin
    id 23
    name RightLeg
    direction -1.82786e-007 -1 -1.80317e-007
    length 14.9995
    axis 3.68513 0.0193739 -0.131021 xyz
    dof rx ry rz
  end
  begin
    id 24
    name RightFoot
    direction 8.31721e-007 -4.63324e-011 1
    length 6.74421
    axis 4.81691e-005 -0.120479 -0.188785 xyz
    dof rx ry rz
  end
  begin
    id 25
    name RightToes
    direction 0.00124746 -0.014064 0.9999
    length 3.85082
    axis 0.000481921 0.542163 -0.142575 xyz
    dof rx ry rz
  end
:hierarchy
  begin
    root LeftUpLegDummy SpineDummy RightUpLegDummy
    LeftUpLegDummy LeftUpLeg
    LeftUpLeg LeftLeg
    LeftLeg LeftFoot
    LeftFoot LeftToes
    SpineDummy Spine
    Spine Spine1
    Spine1 RightShoulderDummy LeftShoulder1Dummy HEadDummy
    RightShoulderDummy RightShoulder
    RightShoulder RightArm
    RightArm RightForeArm
    RightForeArm RightHand
    LeftShoulder1Dummy LeftShoulder1
    LeftShoulder1 LeftArm
    LeftArm LeftForeArm
    LeftForeArm LeftHand
    HEadDummy HEad
    RightUpLegDummy RightUpLeg
    RightUpLeg RightLeg
    RightLeg RightFoot
    RightFoot RightToes
  end

:SAMPLES-PER-SECOND 30
:FULLY-SPECIFIED
:DEGREES
98
root  3.62585 33.6504 -6.59536 7.95877 -33.0642 -3.14719
LeftUpLeg  -4.15651 18.8075 5.54447
LeftLeg  27.3801 32.2469 13.1784
LeftFoot  -8.40545 -0.429418 -5.83873
LeftToes  -5.71831 1.85109e-006 5.31342e-008
Spine  2.39725 -2.90058 7.61062
Spine1  4.78638 -5.40313 13.3904
RightShoulder  0.247725 3.00327 13.5199
RightArm  -11.8997 10.167 65.0159
RightForeArm  50.297 14.3435 2.55591
RightHand  0.505257 -10.0441 -5.37137
LeftShoulder1  0.00532946 -3.29747 -4.89544
LeftArm  4.19803 40.0809 -85.9918
LeftForeArm  0.775243 -40.1317 -8.53125
LeftHand  0.0275809 10.7417 -0.0765323
HEad  -51.1344 -65.7807 62.7589
RightUpLeg  -20.9249 9.02779 -5.17306
RightLeg  18.907 30.7565 7.9419
RightFoot  5.25111 -0.13822 3.39057
RightToes  -34.2344 -0.181029 -0.286175
99
root  4.00199 33.6083 -6.37614 9.54057 -42.1108 -3.12467
LeftUpLeg  -4.51492 22.128 3.03751
LeftLeg  27.0332 30.9477 12.515
LeftFoot  -11.22 -0.726346 -7.38443
LeftToes  -1.40061 1.85109e-006 5.31342e-008
Spine  2.86004 -4.18634 8.87096
Spine1  5.65693 -8.1087 15.5927
RightShoulder  0.257348 2.66147 15.1233
RightArm  -3.89355 13.5573 64.0838
RightForeArm  43.6624 18.4831 3.3592
RightHand  0.290932 -10.5914 -2.76624
LeftShoulder1  0.00135961 -4.14174 -3.85211
LeftArm  14.931 42.5254 -82.8364
LeftForeArm  -2.93892 -47.3259 -11.0078
LeftHand  -0.224761 14.5608 -2.12812
HEad  -53.7452 -68.6074 67.545
RightUpLeg  -23.1113 13.4355 -6.39299
RightLeg  16.7697 34.2288 7.47317
RightFoot  6.72207 -0.262435 4.8434
RightToes  -35.1914 -0.181254 -0.28638
100
root  4.38502 33.508 -6.15758 11.5382 -50.702 -4.32936
LeftUpLeg  -4.57827 22.1994 0.92226
LeftLeg  25.345 26.661 10.103
LeftFoot  -15.3309 -1.12251 -8.32574
LeftToes  2.88813 1.85109e-006 5.31342e-008
Spine  3.77372 -5.08838 10.0009
Spine1  7.3434 -10.2184 17.6339
RightShoulder  0.250617 2.42733 15.8009
RightArm  0.388976 15.6768 62.5388
RightForeArm  35.8018 23.8351 4.45649
RightHand  0.139835 -10.9103 -1.09353
LeftShoulder1  -0.00642675 -5.47835 -2.77517
LeftArm  24.6875 42.7681 -76.88
LeftForeArm  -0.000959406 -54.2439 -14.1746
LeftHand  -0.429633 12.0789 -4.42653
HEad  -52.0359 -68.333 68.257
RightUpLeg  -24.7925 14.2144 -5.62196
RightLeg  15.3896 37.623 7.23739
RightFoot  8.08146 -0.431579 6.48068
RightToes  -34.6044 -0.176879 -0.28266
101
root  4.70812 33.3988 -5.95888 14.0054 -57.7865 -5.86867
LeftUpLeg  -5.29862 20.0869 -1.46149
LeftLeg  24.6716 25.8627 9.49825
LeftFoot  -17.9966 -1.48449 -9.35422
LeftToes  5.89209 1.85109e-006 5.31342e-008
Spine  4.58038 -5.6722 10.7468
Spine1  8.79424 -11.665 19.0649
RightShoulder  0.226231 1.78193 15.8811
RightArm  0.522651 16.4972 60.894
RightForeArm  28.6431 28.8034 5.55859
RightHand  0.0235625 -11.4088 0.134049
LeftShoulder1  -0.0148722 -6.53925 -2.44733
LeftArm  37.9828 40.2719 -66.5821
LeftForeArm  11.8575 -61.7601 -19.224
LeftHand  -0.279337 9.67244 -3.66793
HEad  -48.6994 -67.0827 66.9651
RightUpLeg  -25.5069 14.0545 -4.29862
RightLeg  11.99 38.4178 5.21312
RightFoot  9.86154 -0.655983 7.96966
RightToes  -33.6895 -0.170135 -0.276774
102
root  5.01075 33.3168 -5.7616 15.639 -64.4169 -6.44964
LeftUpLeg  -6.13607 20.1967 -4.2599
LeftLeg  23.6686 25.4639 8.88504
LeftFoot  -19.5223 -1.70328 -9.87719
LeftToes  8.95133 1.85109e-006 5.31342e-008
Spine  5.25079 -5.68155 10.9763
Spine1  10.1114 -11.8539 19.4684
RightShoulder  0.211534 1.4306 15.5589
RightArm  -2.82655 15.8416 58.9437
RightForeArm  24.3442 32.5526 6.46147
RightHand  0.164476 -12.1293 -1.17735
LeftShoulder1  -0.0226139 -7.48915 -2.95319
LeftArm  48.8832 34.8673 -55.3727
LeftForeArm  17.6299 -67.048 -24.7195
LeftHand  -0.184645 7.93169 -3.03018
HEad  -44.0667 -65.7404 63.3255
RightUpLeg  -26.4404 15.9391 -4.79512
RightLeg  8.76792 40.2049 3.31867
RightFoot  11.4624 -0.942889 9.75095
RightToes  -34.605 -0.166872 -0.273897
103
root  5.27892 33.2142 -5.60747 17.4454 -69.5613 -7.42662
LeftUpLeg  -7.4877 22.3769 -6.19788
LeftLeg  23.8704 25.2983 8.92733
LeftFoot  -20.4771 -1.86282 -10.2865
LeftToes  10.0074 1.85109e-006 5.31342e-008
Spine  5.77967 -5.58151 11.1664
Spine1  11.2727 -11.7457 19.6099
RightShoulder  0.219996 1.5117 15.3086
RightArm  -7.87614 14.5278 56.4788
RightForeArm  23.9892 34.4445 6.94621
RightHand  0.579683 -12.1045 -5.09051
LeftShoulder1  -0.0276372 -7.5373 -2.81634
LeftArm  52.2467 27.9185 -48.1694
LeftForeArm  18.2924 -69.115 -27.6624
LeftHand  -0.359807 7.47665 -5.86709
HEad  -37.9722 -64.5961 57.7119
RightUpLeg  -28.2793 14.6212 -4.15722
RightLeg  9.55876 40.9869 3.89398
RightFoot  12.2479 -1.11085 10.7027
RightToes  -33.8638 -0.164966 -0.272191
